<svg t="1658819966577" class="icon" viewBox="0 0 1024 1024" version="1.1" xmlns="http://www.w3.org/2000/svg" p-id="2095" width="200" height="200"><path d="M224 416c19.2 0 32-12.8 32-32s-12.8-32-32-32L163.2 352C224 217.6 358.4 128 512 128c166.4 0 313.6 105.6 364.8 265.6 6.4 16 22.4 25.6 41.6 19.2 16-6.4 25.6-22.4 19.2-41.6C876.8 188.8 707.2 64 512 64 352 64 208 147.2 128 281.6L128 256c0-19.2-12.8-32-32-32S64 236.8 64 256l0 128c0 19.2 12.8 32 32 32L224 416z" p-id="2096"></path><path d="M928 608l-128 0c-19.2 0-32 12.8-32 32s12.8 32 32 32l60.8 0c-60.8 134.4-198.4 224-348.8 224-166.4 0-313.6-105.6-364.8-265.6-6.4-16-22.4-25.6-41.6-19.2-16 6.4-25.6 22.4-19.2 41.6C144 835.2 316.8 960 512 960c160 0 304-86.4 384-217.6L896 768c0 19.2 12.8 32 32 32s32-12.8 32-32l0-128C960 620.8 947.2 608 928 608z" p-id="2097"></path></svg>